<mxfile host="app.diagrams.net" modified="2021-06-17T20:16:55.284Z" agent="5.0 (Windows NT 10.0; Win64; x64) AppleWebKit/537.36 (KHTML, like Gecko) Chrome/91.0.4472.106 Safari/537.36" etag="EzWc8deS6YtVWXh9l8R7" version="14.7.10" type="github">
  <diagram id="Js54alGn4AjX2zPeYyBl" name="Page-1">
    <mxGraphModel dx="1422" dy="762" grid="1" gridSize="10" guides="1" tooltips="1" connect="1" arrows="1" fold="1" page="1" pageScale="1" pageWidth="827" pageHeight="1169" math="0" shadow="0">
      <root>
        <mxCell id="0" />
        <mxCell id="1" parent="0" />
        <mxCell id="QRr55zgmmeQrsnKyoeg7-24" value="Agreement Calculator" style="rounded=1;whiteSpace=wrap;html=1;dashed=1;" vertex="1" parent="1">
          <mxGeometry x="710" y="105" width="350" height="310" as="geometry" />
        </mxCell>
        <mxCell id="QRr55zgmmeQrsnKyoeg7-1" value="Agreement Calculator" style="ellipse;whiteSpace=wrap;html=1;aspect=fixed;fillColor=#f5f5f5;strokeColor=#666666;fontColor=#333333;" vertex="1" parent="1">
          <mxGeometry x="200" y="200" width="130" height="130" as="geometry" />
        </mxCell>
        <mxCell id="QRr55zgmmeQrsnKyoeg7-5" value="SFI" style="ellipse;whiteSpace=wrap;html=1;aspect=fixed;fillColor=#d5e8d4;strokeColor=#82b366;" vertex="1" parent="1">
          <mxGeometry x="90" y="80" width="80" height="80" as="geometry" />
        </mxCell>
        <mxCell id="QRr55zgmmeQrsnKyoeg7-6" value="LNR" style="ellipse;whiteSpace=wrap;html=1;aspect=fixed;fillColor=#e1d5e7;strokeColor=#9673a6;" vertex="1" parent="1">
          <mxGeometry x="350" y="80" width="80" height="80" as="geometry" />
        </mxCell>
        <mxCell id="QRr55zgmmeQrsnKyoeg7-7" value="LR" style="ellipse;whiteSpace=wrap;html=1;aspect=fixed;fillColor=#ffe6cc;strokeColor=#d79b00;" vertex="1" parent="1">
          <mxGeometry x="90" y="360" width="80" height="80" as="geometry" />
        </mxCell>
        <mxCell id="QRr55zgmmeQrsnKyoeg7-8" value="Grants" style="ellipse;whiteSpace=wrap;html=1;aspect=fixed;fillColor=#fff2cc;strokeColor=#d6b656;" vertex="1" parent="1">
          <mxGeometry x="350" y="360" width="80" height="80" as="geometry" />
        </mxCell>
        <mxCell id="QRr55zgmmeQrsnKyoeg7-14" value="" style="shape=image;html=1;verticalAlign=top;verticalLabelPosition=bottom;labelBackgroundColor=#ffffff;imageAspect=0;aspect=fixed;image=https://cdn3.iconfinder.com/data/icons/flat-actions-icons-9/792/Close_Icon_Dark-128.png" vertex="1" parent="1">
          <mxGeometry x="202" y="547.5" width="128" height="128" as="geometry" />
        </mxCell>
        <mxCell id="QRr55zgmmeQrsnKyoeg7-15" value="SFI" style="ellipse;whiteSpace=wrap;html=1;aspect=fixed;fillColor=#d5e8d4;strokeColor=#82b366;" vertex="1" parent="1">
          <mxGeometry x="610" y="10" width="80" height="80" as="geometry" />
        </mxCell>
        <mxCell id="QRr55zgmmeQrsnKyoeg7-16" value="SFI" style="ellipse;whiteSpace=wrap;html=1;aspect=fixed;fillColor=#d5e8d4;strokeColor=#82b366;" vertex="1" parent="1">
          <mxGeometry x="730" y="115" width="80" height="80" as="geometry" />
        </mxCell>
        <mxCell id="QRr55zgmmeQrsnKyoeg7-17" value="" style="ellipse;whiteSpace=wrap;html=1;aspect=fixed;fillColor=#f5f5f5;strokeColor=#666666;fontColor=#333333;" vertex="1" parent="1">
          <mxGeometry x="845" y="165" width="80" height="80" as="geometry" />
        </mxCell>
        <mxCell id="QRr55zgmmeQrsnKyoeg7-18" value="LNR" style="ellipse;whiteSpace=wrap;html=1;aspect=fixed;fillColor=#e1d5e7;strokeColor=#9673a6;" vertex="1" parent="1">
          <mxGeometry x="960" y="115" width="80" height="80" as="geometry" />
        </mxCell>
        <mxCell id="QRr55zgmmeQrsnKyoeg7-19" value="LNR" style="ellipse;whiteSpace=wrap;html=1;aspect=fixed;fillColor=#e1d5e7;strokeColor=#9673a6;" vertex="1" parent="1">
          <mxGeometry x="1080" y="10" width="80" height="80" as="geometry" />
        </mxCell>
        <mxCell id="QRr55zgmmeQrsnKyoeg7-20" value="Grants" style="ellipse;whiteSpace=wrap;html=1;aspect=fixed;fillColor=#fff2cc;strokeColor=#d6b656;" vertex="1" parent="1">
          <mxGeometry x="960" y="315" width="80" height="80" as="geometry" />
        </mxCell>
        <mxCell id="QRr55zgmmeQrsnKyoeg7-21" value="Grants" style="ellipse;whiteSpace=wrap;html=1;aspect=fixed;fillColor=#fff2cc;strokeColor=#d6b656;" vertex="1" parent="1">
          <mxGeometry x="1080" y="430" width="80" height="80" as="geometry" />
        </mxCell>
        <mxCell id="QRr55zgmmeQrsnKyoeg7-22" value="LR" style="ellipse;whiteSpace=wrap;html=1;aspect=fixed;fillColor=#ffe6cc;strokeColor=#d79b00;" vertex="1" parent="1">
          <mxGeometry x="730" y="315" width="80" height="80" as="geometry" />
        </mxCell>
        <mxCell id="QRr55zgmmeQrsnKyoeg7-23" value="LR" style="ellipse;whiteSpace=wrap;html=1;aspect=fixed;fillColor=#ffe6cc;strokeColor=#d79b00;" vertex="1" parent="1">
          <mxGeometry x="610" y="430" width="80" height="80" as="geometry" />
        </mxCell>
        <mxCell id="QRr55zgmmeQrsnKyoeg7-25" value="" style="ellipse;whiteSpace=wrap;html=1;aspect=fixed;fillColor=#f5f5f5;strokeColor=#666666;fontColor=#333333;" vertex="1" parent="1">
          <mxGeometry x="845" y="275" width="80" height="80" as="geometry" />
        </mxCell>
        <mxCell id="QRr55zgmmeQrsnKyoeg7-33" value="" style="shape=image;html=1;verticalAlign=top;verticalLabelPosition=bottom;labelBackgroundColor=#ffffff;imageAspect=0;aspect=fixed;image=https://cdn3.iconfinder.com/data/icons/miscellaneous-80/60/check-128.png;dashed=1;" vertex="1" parent="1">
          <mxGeometry x="840" y="570.25" width="82.5" height="82.5" as="geometry" />
        </mxCell>
        <mxCell id="QRr55zgmmeQrsnKyoeg7-34" value="SFI" style="ellipse;whiteSpace=wrap;html=1;aspect=fixed;fillColor=#d5e8d4;strokeColor=#82b366;" vertex="1" parent="1">
          <mxGeometry x="730" y="210" width="80" height="80" as="geometry" />
        </mxCell>
        <mxCell id="QRr55zgmmeQrsnKyoeg7-36" value="Grants" style="ellipse;whiteSpace=wrap;html=1;aspect=fixed;fillColor=#fff2cc;strokeColor=#d6b656;" vertex="1" parent="1">
          <mxGeometry x="960" y="210" width="80" height="80" as="geometry" />
        </mxCell>
        <mxCell id="QRr55zgmmeQrsnKyoeg7-37" value="SFI" style="ellipse;whiteSpace=wrap;html=1;aspect=fixed;fillColor=#d5e8d4;strokeColor=#82b366;" vertex="1" parent="1">
          <mxGeometry x="730" y="10" width="80" height="80" as="geometry" />
        </mxCell>
        <mxCell id="QRr55zgmmeQrsnKyoeg7-38" value="SFI" style="ellipse;whiteSpace=wrap;html=1;aspect=fixed;fillColor=#d5e8d4;strokeColor=#82b366;" vertex="1" parent="1">
          <mxGeometry x="610" y="115" width="80" height="80" as="geometry" />
        </mxCell>
        <mxCell id="QRr55zgmmeQrsnKyoeg7-39" value="LNR" style="ellipse;whiteSpace=wrap;html=1;aspect=fixed;fillColor=#e1d5e7;strokeColor=#9673a6;" vertex="1" parent="1">
          <mxGeometry x="1080" y="115" width="80" height="80" as="geometry" />
        </mxCell>
        <mxCell id="QRr55zgmmeQrsnKyoeg7-40" value="Grants" style="ellipse;whiteSpace=wrap;html=1;aspect=fixed;fillColor=#fff2cc;strokeColor=#d6b656;" vertex="1" parent="1">
          <mxGeometry x="960" y="430" width="80" height="80" as="geometry" />
        </mxCell>
        <mxCell id="QRr55zgmmeQrsnKyoeg7-41" value="LR" style="ellipse;whiteSpace=wrap;html=1;aspect=fixed;fillColor=#ffe6cc;strokeColor=#d79b00;" vertex="1" parent="1">
          <mxGeometry x="610" y="320" width="80" height="80" as="geometry" />
        </mxCell>
        <mxCell id="QRr55zgmmeQrsnKyoeg7-42" value="LR" style="ellipse;whiteSpace=wrap;html=1;aspect=fixed;fillColor=#ffe6cc;strokeColor=#d79b00;" vertex="1" parent="1">
          <mxGeometry x="90" y="260" width="80" height="80" as="geometry" />
        </mxCell>
        <mxCell id="QRr55zgmmeQrsnKyoeg7-43" value="Grants" style="ellipse;whiteSpace=wrap;html=1;aspect=fixed;fillColor=#fff2cc;strokeColor=#d6b656;" vertex="1" parent="1">
          <mxGeometry x="250" y="360" width="80" height="80" as="geometry" />
        </mxCell>
        <mxCell id="QRr55zgmmeQrsnKyoeg7-44" value="LNR" style="ellipse;whiteSpace=wrap;html=1;aspect=fixed;fillColor=#e1d5e7;strokeColor=#9673a6;" vertex="1" parent="1">
          <mxGeometry x="350" y="180" width="80" height="80" as="geometry" />
        </mxCell>
        <mxCell id="QRr55zgmmeQrsnKyoeg7-45" value="SFI" style="ellipse;whiteSpace=wrap;html=1;aspect=fixed;fillColor=#d5e8d4;strokeColor=#82b366;" vertex="1" parent="1">
          <mxGeometry x="190" y="80" width="80" height="80" as="geometry" />
        </mxCell>
        <mxCell id="QRr55zgmmeQrsnKyoeg7-46" value="SFI" style="ellipse;whiteSpace=wrap;html=1;aspect=fixed;fillColor=#d5e8d4;strokeColor=#82b366;" vertex="1" parent="1">
          <mxGeometry x="90" y="170" width="80" height="80" as="geometry" />
        </mxCell>
      </root>
    </mxGraphModel>
  </diagram>
</mxfile>
